<svg xmlns="http://www.w3.org/2000/svg" viewBox="-24 -24 48 48"><title>Ship City</title><circle r="21" fill="#070b10" fill-opacity=".85"/><circle r="21" fill="none" stroke="#d6bd7e" stroke-width="1.3"/><circle r="17.5" fill="none" stroke="#d6bd7e" stroke-width="1.3" stroke-dasharray="1 3" opacity=".7"/><path d="M-15 5-12-2-7-5-2-4 3-7 9-5 14 0 12 6 5 9-4 8-11 8Z" fill="#d6bd7e" fill-opacity=".18"/><path d="M-15 5-12-2-7-5-2-4 3-7 9-5 14 0 12 6 5 9-4 8-11 8Z" fill="none" stroke="#d6bd7e" stroke-width="1.3" stroke-linecap="round" stroke-linejoin="round"/><path d="M-2-4V-16M3-7V-13M7-6V-10.5M-9-4a4 4 0 0 1 6 0M14 0h6M17-2v4M-8 2l3 3M1 1l4 4M-4 5h3" fill="none" stroke="#d6bd7e" stroke-width="1.3" stroke-linecap="round" stroke-linejoin="round"/><circle cx="-2" cy="-17.2" r="1.2" fill="none" stroke="#d6bd7e" stroke-width="1.3"/></svg>
